<?xml version="1.0" encoding="UTF-8"?> <!-- Generator: Adobe Illustrator 18.0.0, SVG Export Plug-In . SVG Version: 6.00 Build 0) --> <svg xmlns="http://www.w3.org/2000/svg" xmlns:xlink="http://www.w3.org/1999/xlink" version="1.1" id="Layer_1" x="0px" y="0px" viewBox="0 0 1080 1296" xml:space="preserve"> <g> <path d="M443.3,618.9c-58.6-19.8-116.7-31.6-178.5-28.8c51.7,14,103.5,27.8,155,42.1c10.2,2.8,27.4,1.8,23.8,16.3 c-3.8,15.5,5.4,36.2-25,42.4c-33.9,6.9-67.4,15.4-100.5,27.2c37.7-3.9,75.5-7.8,115.1-11.9c-7,30.9-14.5,59.7-48,80.2 c-55,33.4-106.1,71.3-163,102.2c-76,41.3-113.3,30.7-147.6-38.6c-37.8-76.4-47.6-156.8-41.4-238.5c4.3-56.6,15.6-112.3,43.8-164.8 c37-68.8,70.8-79,151.7-43.8C300,434,359.5,476.8,411.6,527C439.1,553.6,447.7,583.1,443.3,618.9z"></path> <path d="M819.5,573.9c-24.2,6-48.6,11.6-72.6,18c-24.3,6.5-48.4,13.6-73.6,20.8c-8.4-15.5-17.1-29.8-23.5-44.8 c-2-4.6,1-12.1,4.7-16.6c56.8-68.5,128.8-123.5,221.9-158c55.8-20.7,82.5-12.7,112.4,30.6c31.6,45.8,45,96.4,53.1,147.7 c13.4,84.8,6.3,168.7-24.9,250.5c-8.5,22.3-21.6,44.2-36.9,64c-21,27.2-45.9,34.1-81.8,20.8c-34.8-12.9-68.9-28.7-99.4-47.5 c-37.5-23.2-70.7-50.9-105.9-76.4c-12.1-8.7-15.6-18-10.5-31.2c4.5-11.7,4.3-24.7,6.2-37.1c45.8,6.4,91.9,12.9,137.9,19.4 c0.5-1.4,0.9-2.9,1.4-4.3c-28.6-6.7-57.2-13.3-85.7-20.1c-58.8-14-62.9-18.1-61.5-66.9c0.1-5,7.4-11.9,13.6-14.5 c41.8-17.7,84.1-34.4,126.2-51.4C820.3,575.9,819.9,574.9,819.5,573.9z"></path> <path d="M656.8,705.6c0,4.9,0.1,9.8,0,14.7c-1.2,49.6-10.4,59.2-72.3,59.1c-37.1-0.1-74.5-6.4-111.3-12.2 c-17.6-2.8-22.3-12.6-19.7-29.6c8-51,12.5-102.5,15.2-153.9c0.8-15,6.3-21.7,22.3-25.2c0.8-0.2,1.6-0.5,2.5-0.6 c117.8-22.7,130.1-7.6,156.7,87.4c5.5,19.6,5.8,40.1,8.5,60.2C658,705.5,657.4,705.5,656.8,705.6z"></path> </g> </svg> 